<mxfile host="Electron" modified="2023-12-14T01:14:51.202Z" agent="Mozilla/5.0 (Macintosh; Intel Mac OS X 10_15_7) AppleWebKit/537.36 (KHTML, like Gecko) draw.io/22.1.2 Chrome/114.0.5735.289 Electron/25.9.4 Safari/537.36" etag="2vN2hiElzwa0Fk1qLJXB" version="22.1.2" type="device">
  <diagram id="dcpS9tk-tNFnPUfy5Z-c" name="Page-1">
    <mxGraphModel dx="1114" dy="999" grid="1" gridSize="10" guides="1" tooltips="1" connect="1" arrows="1" fold="1" page="0" pageScale="1" pageWidth="850" pageHeight="1100" math="0" shadow="0">
      <root>
        <mxCell id="0" />
        <mxCell id="1" parent="0" />
        <mxCell id="yd-EhuIiWRgOQxDpx6bO-1" value="AWS Cloud" style="sketch=0;outlineConnect=0;gradientColor=none;html=1;whiteSpace=wrap;fontSize=12;fontStyle=0;shape=mxgraph.aws4.group;grIcon=mxgraph.aws4.group_aws_cloud;strokeColor=#858B94;fillColor=none;verticalAlign=top;align=left;spacingLeft=30;fontColor=#858B94;dashed=0;" parent="1" vertex="1">
          <mxGeometry x="100" y="130" width="900" height="650" as="geometry" />
        </mxCell>
        <mxCell id="yd-EhuIiWRgOQxDpx6bO-2" value="VPC" style="points=[[0,0],[0.25,0],[0.5,0],[0.75,0],[1,0],[1,0.25],[1,0.5],[1,0.75],[1,1],[0.75,1],[0.5,1],[0.25,1],[0,1],[0,0.75],[0,0.5],[0,0.25]];outlineConnect=0;gradientColor=none;html=1;whiteSpace=wrap;fontSize=12;fontStyle=0;container=1;pointerEvents=0;collapsible=0;recursiveResize=0;shape=mxgraph.aws4.group;grIcon=mxgraph.aws4.group_vpc2;strokeColor=#8C4FFF;fillColor=none;verticalAlign=top;align=left;spacingLeft=30;fontColor=#AAB7B8;dashed=0;" parent="1" vertex="1">
          <mxGeometry x="130" y="170" width="480" height="318" as="geometry" />
        </mxCell>
        <mxCell id="yd-EhuIiWRgOQxDpx6bO-10" value="Private subnet" style="points=[[0,0],[0.25,0],[0.5,0],[0.75,0],[1,0],[1,0.25],[1,0.5],[1,0.75],[1,1],[0.75,1],[0.5,1],[0.25,1],[0,1],[0,0.75],[0,0.5],[0,0.25]];outlineConnect=0;gradientColor=none;html=1;whiteSpace=wrap;fontSize=12;fontStyle=0;container=1;pointerEvents=0;collapsible=0;recursiveResize=0;shape=mxgraph.aws4.group;grIcon=mxgraph.aws4.group_security_group;grStroke=0;strokeColor=#00A4A6;fillColor=#4D4D4D;verticalAlign=top;align=left;spacingLeft=30;fontColor=#147EBA;dashed=0;" parent="yd-EhuIiWRgOQxDpx6bO-2" vertex="1">
          <mxGeometry x="50" y="90" width="130" height="130" as="geometry" />
        </mxCell>
        <mxCell id="yd-EhuIiWRgOQxDpx6bO-15" value="" style="sketch=0;outlineConnect=0;fontColor=#232F3E;gradientColor=none;fillColor=#8C4FFF;strokeColor=none;dashed=0;verticalLabelPosition=bottom;verticalAlign=top;align=center;html=1;fontSize=12;fontStyle=0;aspect=fixed;pointerEvents=1;shape=mxgraph.aws4.elastic_network_interface;" parent="yd-EhuIiWRgOQxDpx6bO-10" vertex="1">
          <mxGeometry x="33" y="33" width="64" height="64" as="geometry" />
        </mxCell>
        <mxCell id="yd-EhuIiWRgOQxDpx6bO-11" value="Private subnet" style="points=[[0,0],[0.25,0],[0.5,0],[0.75,0],[1,0],[1,0.25],[1,0.5],[1,0.75],[1,1],[0.75,1],[0.5,1],[0.25,1],[0,1],[0,0.75],[0,0.5],[0,0.25]];outlineConnect=0;gradientColor=none;html=1;whiteSpace=wrap;fontSize=12;fontStyle=0;container=1;pointerEvents=0;collapsible=0;recursiveResize=0;shape=mxgraph.aws4.group;grIcon=mxgraph.aws4.group_security_group;grStroke=0;strokeColor=#00A4A6;fillColor=#4D4D4D;verticalAlign=top;align=left;spacingLeft=30;fontColor=#147EBA;dashed=0;" parent="yd-EhuIiWRgOQxDpx6bO-2" vertex="1">
          <mxGeometry x="300" y="90" width="130" height="130" as="geometry" />
        </mxCell>
        <mxCell id="yd-EhuIiWRgOQxDpx6bO-16" value="" style="sketch=0;outlineConnect=0;fontColor=#232F3E;gradientColor=none;fillColor=#8C4FFF;strokeColor=none;dashed=0;verticalLabelPosition=bottom;verticalAlign=top;align=center;html=1;fontSize=12;fontStyle=0;aspect=fixed;pointerEvents=1;shape=mxgraph.aws4.elastic_network_interface;" parent="yd-EhuIiWRgOQxDpx6bO-11" vertex="1">
          <mxGeometry x="33" y="33" width="64" height="64" as="geometry" />
        </mxCell>
        <mxCell id="yd-EhuIiWRgOQxDpx6bO-18" value="&lt;font&gt;Network Interface&lt;/font&gt;" style="text;html=1;strokeColor=none;fillColor=none;align=center;verticalAlign=middle;whiteSpace=wrap;rounded=0;fontColor=#FFFFFF;" parent="yd-EhuIiWRgOQxDpx6bO-11" vertex="1">
          <mxGeometry x="10" y="100" width="110" height="30" as="geometry" />
        </mxCell>
        <mxCell id="yd-EhuIiWRgOQxDpx6bO-8" value="" style="sketch=0;points=[[0,0,0],[0.25,0,0],[0.5,0,0],[0.75,0,0],[1,0,0],[0,1,0],[0.25,1,0],[0.5,1,0],[0.75,1,0],[1,1,0],[0,0.25,0],[0,0.5,0],[0,0.75,0],[1,0.25,0],[1,0.5,0],[1,0.75,0]];outlineConnect=0;fontColor=#232F3E;fillColor=#8C4FFF;strokeColor=#ffffff;dashed=0;verticalLabelPosition=bottom;verticalAlign=top;align=center;html=1;fontSize=12;fontStyle=0;aspect=fixed;shape=mxgraph.aws4.resourceIcon;resIcon=mxgraph.aws4.elasticsearch_service;" parent="1" vertex="1">
          <mxGeometry x="750" y="283" width="70" height="70" as="geometry" />
        </mxCell>
        <mxCell id="yd-EhuIiWRgOQxDpx6bO-7" value="" style="sketch=0;outlineConnect=0;fontColor=#232F3E;gradientColor=none;fillColor=#8C4FFF;strokeColor=none;dashed=0;verticalLabelPosition=bottom;verticalAlign=top;align=center;html=1;fontSize=12;fontStyle=0;aspect=fixed;pointerEvents=1;shape=mxgraph.aws4.opensearch_ingestion;" parent="1" vertex="1">
          <mxGeometry x="586" y="638" width="62" height="62" as="geometry" />
        </mxCell>
        <mxCell id="yd-EhuIiWRgOQxDpx6bO-4" value="" style="sketch=0;points=[[0,0,0],[0.25,0,0],[0.5,0,0],[0.75,0,0],[1,0,0],[0,1,0],[0.25,1,0],[0.5,1,0],[0.75,1,0],[1,1,0],[0,0.25,0],[0,0.5,0],[0,0.75,0],[1,0.25,0],[1,0.5,0],[1,0.75,0]];outlineConnect=0;fontColor=#232F3E;fillColor=#C925D1;strokeColor=#ffffff;dashed=0;verticalLabelPosition=bottom;verticalAlign=top;align=center;html=1;fontSize=12;fontStyle=0;aspect=fixed;shape=mxgraph.aws4.resourceIcon;resIcon=mxgraph.aws4.dynamodb;" parent="1" vertex="1">
          <mxGeometry x="188" y="638" width="62" height="62" as="geometry" />
        </mxCell>
        <mxCell id="yd-EhuIiWRgOQxDpx6bO-6" value="" style="sketch=0;points=[[0,0,0],[0.25,0,0],[0.5,0,0],[0.75,0,0],[1,0,0],[0,1,0],[0.25,1,0],[0.5,1,0],[0.75,1,0],[1,1,0],[0,0.25,0],[0,0.5,0],[0,0.75,0],[1,0.25,0],[1,0.5,0],[1,0.75,0]];outlineConnect=0;fontColor=#232F3E;fillColor=#7AA116;strokeColor=#ffffff;dashed=0;verticalLabelPosition=bottom;verticalAlign=top;align=center;html=1;fontSize=12;fontStyle=0;aspect=fixed;shape=mxgraph.aws4.resourceIcon;resIcon=mxgraph.aws4.s3;" parent="1" vertex="1">
          <mxGeometry x="382.5" y="520" width="68" height="68" as="geometry" />
        </mxCell>
        <mxCell id="yd-EhuIiWRgOQxDpx6bO-12" value="OpenSearch Ingestion Pipeline" style="text;html=1;strokeColor=none;fillColor=none;align=center;verticalAlign=middle;whiteSpace=wrap;rounded=0;" parent="1" vertex="1">
          <mxGeometry x="560" y="710" width="108" height="30" as="geometry" />
        </mxCell>
        <mxCell id="yd-EhuIiWRgOQxDpx6bO-13" value="OpenSearch Serverless Collection" style="text;html=1;strokeColor=none;fillColor=none;align=center;verticalAlign=middle;whiteSpace=wrap;rounded=0;" parent="1" vertex="1">
          <mxGeometry x="730" y="370" width="110" height="30" as="geometry" />
        </mxCell>
        <mxCell id="yd-EhuIiWRgOQxDpx6bO-17" value="&lt;font&gt;Network Interface&lt;/font&gt;" style="text;html=1;strokeColor=none;fillColor=none;align=center;verticalAlign=middle;whiteSpace=wrap;rounded=0;fontColor=#FFFFFF;" parent="1" vertex="1">
          <mxGeometry x="190" y="360" width="110" height="30" as="geometry" />
        </mxCell>
        <mxCell id="yd-EhuIiWRgOQxDpx6bO-19" value="" style="sketch=0;points=[[0,0,0],[0.25,0,0],[0.5,0,0],[0.75,0,0],[1,0,0],[0,1,0],[0.25,1,0],[0.5,1,0],[0.75,1,0],[1,1,0],[0,0.25,0],[0,0.5,0],[0,0.75,0],[1,0.25,0],[1,0.5,0],[1,0.75,0]];points=[[0,0,0],[0.25,0,0],[0.5,0,0],[0.75,0,0],[1,0,0],[0,1,0],[0.25,1,0],[0.5,1,0],[0.75,1,0],[1,1,0],[0,0.25,0],[0,0.5,0],[0,0.75,0],[1,0.25,0],[1,0.5,0],[1,0.75,0]];outlineConnect=0;fontColor=#232F3E;fillColor=#E7157B;strokeColor=#ffffff;dashed=0;verticalLabelPosition=bottom;verticalAlign=top;align=center;html=1;fontSize=12;fontStyle=0;aspect=fixed;shape=mxgraph.aws4.resourceIcon;resIcon=mxgraph.aws4.cloudwatch_2;" parent="1" vertex="1">
          <mxGeometry x="800" y="140" width="70.5" height="70.5" as="geometry" />
        </mxCell>
        <mxCell id="yd-EhuIiWRgOQxDpx6bO-20" value="CloudWatch Logs" style="text;html=1;strokeColor=none;fillColor=none;align=center;verticalAlign=middle;whiteSpace=wrap;rounded=0;" parent="1" vertex="1">
          <mxGeometry x="790.75" y="220" width="89" height="30" as="geometry" />
        </mxCell>
        <mxCell id="yd-EhuIiWRgOQxDpx6bO-21" value="" style="sketch=0;outlineConnect=0;fontColor=#232F3E;gradientColor=none;fillColor=#C925D1;strokeColor=none;dashed=0;verticalLabelPosition=bottom;verticalAlign=top;align=center;html=1;fontSize=12;fontStyle=0;aspect=fixed;pointerEvents=1;shape=mxgraph.aws4.dynamodb_stream;" parent="1" vertex="1">
          <mxGeometry x="385.5" y="638" width="62" height="62" as="geometry" />
        </mxCell>
        <mxCell id="yd-EhuIiWRgOQxDpx6bO-22" value="DynamoDB" style="text;html=1;strokeColor=none;fillColor=none;align=center;verticalAlign=middle;whiteSpace=wrap;rounded=0;" parent="1" vertex="1">
          <mxGeometry x="189" y="710" width="60" height="30" as="geometry" />
        </mxCell>
        <mxCell id="yd-EhuIiWRgOQxDpx6bO-23" value="DynamoDB Streams" style="text;html=1;strokeColor=none;fillColor=none;align=center;verticalAlign=middle;whiteSpace=wrap;rounded=0;" parent="1" vertex="1">
          <mxGeometry x="368" y="710" width="89" height="30" as="geometry" />
        </mxCell>
        <mxCell id="yd-EhuIiWRgOQxDpx6bO-3" value="" style="sketch=0;outlineConnect=0;fontColor=#232F3E;gradientColor=none;fillColor=#8C4FFF;strokeColor=none;dashed=0;verticalLabelPosition=bottom;verticalAlign=top;align=center;html=1;fontSize=12;fontStyle=0;aspect=fixed;pointerEvents=1;shape=mxgraph.aws4.endpoints;" parent="1" vertex="1">
          <mxGeometry x="598" y="400" width="50" height="50" as="geometry" />
        </mxCell>
        <mxCell id="yd-EhuIiWRgOQxDpx6bO-14" value="VPC Endpoint" style="text;html=1;strokeColor=none;fillColor=none;align=center;verticalAlign=middle;whiteSpace=wrap;rounded=0;" parent="1" vertex="1">
          <mxGeometry x="610.3100000000001" y="458" width="43.38" height="20" as="geometry" />
        </mxCell>
        <mxCell id="yd-EhuIiWRgOQxDpx6bO-28" value="S3" style="text;html=1;strokeColor=none;fillColor=none;align=center;verticalAlign=middle;whiteSpace=wrap;rounded=0;" parent="1" vertex="1">
          <mxGeometry x="382.5" y="588" width="60" height="30" as="geometry" />
        </mxCell>
        <mxCell id="yd-EhuIiWRgOQxDpx6bO-29" value="" style="endArrow=classic;html=1;rounded=0;exitX=1;exitY=0.5;exitDx=0;exitDy=0;exitPerimeter=0;" parent="1" source="yd-EhuIiWRgOQxDpx6bO-4" target="yd-EhuIiWRgOQxDpx6bO-21" edge="1">
          <mxGeometry width="50" height="50" relative="1" as="geometry">
            <mxPoint x="490" y="440" as="sourcePoint" />
            <mxPoint x="540" y="390" as="targetPoint" />
          </mxGeometry>
        </mxCell>
        <mxCell id="yd-EhuIiWRgOQxDpx6bO-30" value="" style="endArrow=classic;html=1;rounded=0;entryX=0;entryY=0.5;entryDx=0;entryDy=0;entryPerimeter=0;" parent="1" target="yd-EhuIiWRgOQxDpx6bO-6" edge="1">
          <mxGeometry width="50" height="50" relative="1" as="geometry">
            <mxPoint x="220" y="638" as="sourcePoint" />
            <mxPoint x="540" y="390" as="targetPoint" />
            <Array as="points">
              <mxPoint x="220" y="554" />
            </Array>
          </mxGeometry>
        </mxCell>
        <mxCell id="yd-EhuIiWRgOQxDpx6bO-31" value="" style="endArrow=classic;html=1;rounded=0;" parent="1" source="yd-EhuIiWRgOQxDpx6bO-21" target="yd-EhuIiWRgOQxDpx6bO-7" edge="1">
          <mxGeometry width="50" height="50" relative="1" as="geometry">
            <mxPoint x="490" y="440" as="sourcePoint" />
            <mxPoint x="540" y="390" as="targetPoint" />
            <Array as="points" />
          </mxGeometry>
        </mxCell>
        <mxCell id="yd-EhuIiWRgOQxDpx6bO-34" value="" style="endArrow=classic;html=1;rounded=0;" parent="1" source="yd-EhuIiWRgOQxDpx6bO-7" target="yd-EhuIiWRgOQxDpx6bO-3" edge="1">
          <mxGeometry width="50" height="50" relative="1" as="geometry">
            <mxPoint x="570" y="670" as="sourcePoint" />
            <mxPoint x="620" y="620" as="targetPoint" />
            <Array as="points">
              <mxPoint x="810" y="670" />
              <mxPoint x="810" y="425" />
            </Array>
          </mxGeometry>
        </mxCell>
        <mxCell id="yd-EhuIiWRgOQxDpx6bO-35" value="" style="sketch=0;outlineConnect=0;fontColor=#232F3E;gradientColor=none;fillColor=#8C4FFF;strokeColor=none;dashed=0;verticalLabelPosition=bottom;verticalAlign=top;align=center;html=1;fontSize=12;fontStyle=0;aspect=fixed;pointerEvents=1;shape=mxgraph.aws4.endpoints;" parent="1" vertex="1">
          <mxGeometry x="598" y="293" width="50" height="50" as="geometry" />
        </mxCell>
        <mxCell id="yd-EhuIiWRgOQxDpx6bO-36" value="VPC Endpoint" style="text;html=1;strokeColor=none;fillColor=none;align=center;verticalAlign=middle;whiteSpace=wrap;rounded=0;" parent="1" vertex="1">
          <mxGeometry x="610.3100000000001" y="350" width="43.38" height="20" as="geometry" />
        </mxCell>
        <mxCell id="yd-EhuIiWRgOQxDpx6bO-38" value="" style="endArrow=classic;html=1;rounded=0;entryX=0;entryY=0.5;entryDx=0;entryDy=0;entryPerimeter=0;" parent="1" source="yd-EhuIiWRgOQxDpx6bO-35" target="yd-EhuIiWRgOQxDpx6bO-8" edge="1">
          <mxGeometry width="50" height="50" relative="1" as="geometry">
            <mxPoint x="690" y="370" as="sourcePoint" />
            <mxPoint x="740" y="320" as="targetPoint" />
          </mxGeometry>
        </mxCell>
        <mxCell id="yd-EhuIiWRgOQxDpx6bO-39" value="" style="sketch=0;outlineConnect=0;fontColor=#232F3E;gradientColor=none;fillColor=#8C4FFF;strokeColor=none;dashed=0;verticalLabelPosition=bottom;verticalAlign=top;align=center;html=1;fontSize=12;fontStyle=0;aspect=fixed;pointerEvents=1;shape=mxgraph.aws4.opensearch_dashboards;" parent="1" vertex="1">
          <mxGeometry x="890" y="289.5" width="75.35" height="57" as="geometry" />
        </mxCell>
        <mxCell id="yd-EhuIiWRgOQxDpx6bO-40" value="" style="sketch=0;outlineConnect=0;fontColor=#232F3E;gradientColor=none;fillColor=#DD344C;strokeColor=none;dashed=0;verticalLabelPosition=bottom;verticalAlign=top;align=center;html=1;fontSize=12;fontStyle=0;aspect=fixed;pointerEvents=1;shape=mxgraph.aws4.role;" parent="1" vertex="1">
          <mxGeometry x="899" y="153.25" width="78" height="44" as="geometry" />
        </mxCell>
        <mxCell id="yd-EhuIiWRgOQxDpx6bO-41" value="IAM Roles" style="text;html=1;strokeColor=none;fillColor=none;align=center;verticalAlign=middle;whiteSpace=wrap;rounded=0;" parent="1" vertex="1">
          <mxGeometry x="908" y="220" width="60" height="30" as="geometry" />
        </mxCell>
        <mxCell id="yd-EhuIiWRgOQxDpx6bO-42" value="OpenSearch Dashboard" style="text;html=1;strokeColor=none;fillColor=none;align=center;verticalAlign=middle;whiteSpace=wrap;rounded=0;" parent="1" vertex="1">
          <mxGeometry x="897.68" y="370" width="60" height="30" as="geometry" />
        </mxCell>
        <mxCell id="yd-EhuIiWRgOQxDpx6bO-44" style="edgeStyle=orthogonalEdgeStyle;rounded=0;orthogonalLoop=1;jettySize=auto;html=1;" parent="1" source="yd-EhuIiWRgOQxDpx6bO-43" target="yd-EhuIiWRgOQxDpx6bO-39" edge="1">
          <mxGeometry relative="1" as="geometry">
            <mxPoint x="1170" y="540.2941176470588" as="targetPoint" />
            <mxPoint x="1190" y="318" as="sourcePoint" />
          </mxGeometry>
        </mxCell>
        <mxCell id="AnfAmfl6bpB_NFoHWztR-1" value="" style="endArrow=classic;html=1;rounded=0;fillColor=#f5f5f5;strokeColor=#FFFFFF;dashed=1;" parent="1" edge="1">
          <mxGeometry width="50" height="50" relative="1" as="geometry">
            <mxPoint x="600" y="440" as="sourcePoint" />
            <mxPoint x="280" y="340" as="targetPoint" />
            <Array as="points">
              <mxPoint x="340" y="440" />
              <mxPoint x="340" y="340" />
            </Array>
          </mxGeometry>
        </mxCell>
        <mxCell id="AnfAmfl6bpB_NFoHWztR-3" value="" style="endArrow=classic;html=1;rounded=0;strokeColor=#FFFFFF;fillColor=#0050ef;dashed=1;" parent="1" source="yd-EhuIiWRgOQxDpx6bO-16" edge="1">
          <mxGeometry width="50" height="50" relative="1" as="geometry">
            <mxPoint x="380" y="335" as="sourcePoint" />
            <mxPoint x="597" y="324" as="targetPoint" />
          </mxGeometry>
        </mxCell>
        <mxCell id="AnfAmfl6bpB_NFoHWztR-4" value="" style="endArrow=classic;html=1;rounded=0;strokeColor=#FFFFFF;fillColor=#0050ef;dashed=1;" parent="1" edge="1">
          <mxGeometry width="50" height="50" relative="1" as="geometry">
            <mxPoint x="280" y="325" as="sourcePoint" />
            <mxPoint x="597" y="311" as="targetPoint" />
            <Array as="points">
              <mxPoint x="340" y="325" />
              <mxPoint x="340" y="230" />
              <mxPoint x="580" y="230" />
              <mxPoint x="580" y="311" />
            </Array>
          </mxGeometry>
        </mxCell>
        <mxCell id="AnfAmfl6bpB_NFoHWztR-2" value="" style="endArrow=classic;html=1;rounded=0;strokeColor=#FFFFFF;fillColor=#0050ef;dashed=1;" parent="1" target="yd-EhuIiWRgOQxDpx6bO-16" edge="1">
          <mxGeometry width="50" height="50" relative="1" as="geometry">
            <mxPoint x="598" y="420" as="sourcePoint" />
            <mxPoint x="420" y="310" as="targetPoint" />
            <Array as="points">
              <mxPoint x="400" y="420" />
              <mxPoint x="400" y="325" />
            </Array>
          </mxGeometry>
        </mxCell>
        <mxCell id="yd-EhuIiWRgOQxDpx6bO-43" value="User" style="shape=umlActor;verticalLabelPosition=bottom;verticalAlign=top;html=1;outlineConnect=0;" parent="1" vertex="1">
          <mxGeometry x="1080" y="288" width="30" height="60" as="geometry" />
        </mxCell>
        <mxCell id="AnfAmfl6bpB_NFoHWztR-10" value="" style="endArrow=classic;html=1;rounded=0;exitX=1;exitY=0.5;exitDx=0;exitDy=0;exitPerimeter=0;dashed=1;" parent="1" source="yd-EhuIiWRgOQxDpx6bO-8" target="yd-EhuIiWRgOQxDpx6bO-39" edge="1">
          <mxGeometry width="50" height="50" relative="1" as="geometry">
            <mxPoint x="720" y="420" as="sourcePoint" />
            <mxPoint x="770" y="370" as="targetPoint" />
          </mxGeometry>
        </mxCell>
        <mxCell id="Rmzuc-AXbk1aYvg0XaH8-2" value="" style="endArrow=classic;html=1;rounded=0;exitX=1;exitY=0.5;exitDx=0;exitDy=0;exitPerimeter=0;" parent="1" source="yd-EhuIiWRgOQxDpx6bO-6" target="yd-EhuIiWRgOQxDpx6bO-7" edge="1">
          <mxGeometry width="50" height="50" relative="1" as="geometry">
            <mxPoint x="580" y="570" as="sourcePoint" />
            <mxPoint x="630" y="520" as="targetPoint" />
            <Array as="points">
              <mxPoint x="617" y="554" />
            </Array>
          </mxGeometry>
        </mxCell>
      </root>
    </mxGraphModel>
  </diagram>
</mxfile>
